<?xml version="1.0" encoding="UTF-8" standalone="no"?> <!-- Created with Vectornator for iOS (http://vectornator.io/) --><!DOCTYPE svg PUBLIC "-//W3C//DTD SVG 1.1//EN" "http://www.w3.org/Graphics/SVG/1.1/DTD/svg11.dtd">
<svg style="fill-rule:evenodd;clip-rule:evenodd;stroke-linecap:round;stroke-linejoin:round;" xmlns:vectornator="http://vectornator.io" xmlns:xlink="http://www.w3.org/1999/xlink" xmlns="http://www.w3.org/2000/svg" xml:space="preserve" version="1.1" viewBox="0 0 128 128">
<metadata>
<vectornator:setting key="RulersVisible" value="1"/>
<vectornator:setting key="Units" value="Points"/>
<vectornator:setting key="DynamicGuides" value="1"/>
<vectornator:setting key="GuidesVisible" value="1"/>
<vectornator:setting key="CMYKEnabledKey" value="0"/>
<vectornator:setting key="SnapToGuides" value="1"/>
<vectornator:setting key="GridSpacing" value="36"/>
</metadata>
<defs/>
<g id="Untitled" vectornator:layerName="Untitled">
<g opacity="1">
<path d="M52.193+63.348C51.7569+62.4857+50.7044+62.1401+49.842+62.576L41.584+66.749C40.7208+67.185+40.3748+68.2384+40.8112+69.1014C41.2477+69.9644+42.3012+70.3099+43.164+69.873L51.421+65.7C52.2834+65.2635+52.629+64.2107+52.193+63.348Z" fill-opacity="0.941919" fill="#fffafa" opacity="1"/>
<path d="M61.969+48.725C61.5329+47.8621+60.4797+47.5164+59.617+47.953L51.585+52.012C50.7227+52.4486+50.3768+53.501+50.812+54.364L51.212+55.156L14.012+73.956C13.1496+74.3925+12.804+75.4453+13.24+76.308L14.415+78.633L5.715+83.026C5.30036+83.2349+4.98584+83.6001+4.84082+84.0412C4.6958+84.4822+4.73221+84.9628+4.942+85.377L9+93.41C9.20864+93.8246+9.57377+94.1391+10.0147+94.2839C10.4557+94.4288+10.9361+94.3921+11.35+94.182L20.05+89.789L21.218+92.1C21.427+92.5145+21.7924+92.8288+22.2334+92.9736C22.6744+93.1184+23.1549+93.0819+23.569+92.872L32.885+88.166C33.4225+88.799+34.0579+89.3419+34.767+89.774L24.016+120.929C23.7002+121.843+24.1852+122.839+25.099+123.154C25.2823+123.219+25.4754+123.253+25.67+123.254C26.4163+123.254+27.0805+122.78+27.324+122.075L38.088+90.885C38.321+90.906+38.557+90.921+38.796+90.921C39.035+90.921+39.276+90.906+39.512+90.884L50.276+122.075C50.5195+122.78+51.1837+123.254+51.93+123.254C52.1246+123.253+52.3177+123.219+52.501+123.154C52.94+123.003+53.3008+122.684+53.504+122.266C53.7071+121.849+53.7359+121.368+53.584+120.929L42.832+89.77C45.7082+88.0351+47.1253+84.6339+46.332+81.37L60.776+74.07L61.176+74.87C61.6118+75.7326+62.6643+76.0787+63.527+75.643L71.56+71.583C72.4224+71.1465+72.768+70.0937+72.332+69.231L61.969+48.725ZM11.333+90.27L8.852+85.363L15.991+81.758L18.471+86.665L11.333+90.27ZM38.8+87.417C36.4528+87.417+34.55+85.5142+34.55+83.167C34.55+80.8198+36.4528+78.917+38.8+78.917C41.1472+78.917+43.05+80.8198+43.05+83.167C43.0472+85.5131+41.1461+87.4142+38.8+87.417ZM44.775+78.235C42.4774+75.4247+38.5348+74.5898+35.2953+76.2277C32.0558+77.8656+30.3908+81.5356+31.292+85.052L23.556+88.959L17.156+76.292L52.792+58.28L59.192+70.945L44.775+78.235ZM63.51+71.728L54.726+54.347L59.634+51.866L68.419+69.246L63.51+71.728Z" fill-opacity="0.941919" fill="#fffafa" opacity="1"/>
<path d="M72.453+14.4L74.794+12.117C75.271+11.652+75.4427+10.9565+75.2368+10.323C75.031+9.68945+74.4832+9.22774+73.824+9.132L70.588+8.662L69.142+5.726C68.8473+5.12843+68.2388+4.75006+67.5725+4.75006C66.9062+4.75006+66.2977+5.12843+66.003+5.726L64.556+8.657L61.321+9.127C60.6618+9.22274+60.114+9.68445+59.9082+10.318C59.7023+10.9515+59.874+11.647+60.351+12.112L62.692+14.4L62.14+17.622C62.0262+18.2788+62.2958+18.9431+62.8351+19.3349C63.3745+19.7266+64.0896+19.7774+64.679+19.466L67.572+17.945L70.466+19.466C71.0554+19.7766+71.7701+19.7253+72.3091+19.3338C72.8482+18.9423+73.118+18.2786+73.005+17.622L72.453+14.4ZM69.353+12.536C68.9411+12.9383+68.7541+13.5178+68.853+14.085L68.961+14.719L68.392+14.419C67.8824+14.1496+67.2726+14.1496+66.763+14.419L66.193+14.719L66.302+14.085C66.4004+13.5178+66.2134+12.9386+65.802+12.536L65.341+12.086L65.978+11.994C66.5482+11.911+67.0411+11.5527+67.296+11.036L67.58+10.46L67.865+11.036C68.1197+11.553+68.6127+11.9113+69.183+11.994L69.82+12.086L69.353+12.536Z" fill-opacity="0.941919" fill="#fffafa" opacity="1"/>
<path d="M88.5+32.294L85.265+31.824L83.818+28.892C83.5231+28.295+82.9149+27.9171+82.249+27.9171C81.5831+27.9171+80.9749+28.295+80.68+28.892L79.233+31.824L76+32.294C75.3406+32.3894+74.7926+32.851+74.5865+33.4846C74.3804+34.1182+74.5519+34.8139+75.029+35.279L77.371+37.561L76.818+40.783C76.7054+41.4395+76.9752+42.1031+77.5141+42.4946C78.0529+42.8862+78.7674+42.9379+79.357+42.628L82.251+41.107L85.145+42.628C85.7346+42.9379+86.4491+42.8862+86.9879+42.4946C87.5268+42.1031+87.7966+41.4395+87.684+40.783L87.131+37.561L89.473+35.279C89.9501+34.8139+90.1216+34.1182+89.9155+33.4846C89.7094+32.851+89.1614+32.3894+88.502+32.294L88.5+32.294ZM84.027+35.694C83.616+36.0969+83.4291+36.6759+83.527+37.243L83.636+37.877L83.066+37.577C82.5564+37.309+81.9476+37.309+81.438+37.577L80.868+37.877L80.977+37.243C81.0749+36.6759+80.888+36.0969+80.477+35.694L80.016+35.245L80.652+35.152C81.2221+35.0694+81.7149+34.7115+81.97+34.195L82.255+33.618L82.54+34.195C82.7951+34.7115+83.2879+35.0694+83.858+35.152L84.494+35.245L84.027+35.694Z" fill-opacity="0.941919" fill="#fffafa" opacity="1"/>
<path d="M38.432+33.021L37.88+36.244C37.767+36.9006+38.0368+37.5643+38.5759+37.9558C39.1149+38.3473+39.8296+38.3986+40.419+38.088L43.312+36.567L46.206+38.088C46.7954+38.3986+47.5101+38.3473+48.0491+37.9558C48.5882+37.5643+48.858+36.9006+48.745+36.244L48.193+33.021L50.534+30.739C51.011+30.274+51.1827+29.5785+50.9768+28.945C50.771+28.3115+50.2232+27.8497+49.564+27.754L46.329+27.284L44.882+24.353C44.5873+23.7554+43.9788+23.3771+43.3125+23.3771C42.6462+23.3771+42.0377+23.7554+41.743+24.353L40.3+27.284L37.065+27.754C36.4058+27.8497+35.858+28.3115+35.6522+28.945C35.4463+29.5785+35.618+30.274+36.095+30.739L38.432+33.021ZM41.71+30.616C42.2802+30.533+42.7731+30.1747+43.028+29.658L43.312+29.082L43.597+29.658C43.8519+30.1747+44.3448+30.533+44.915+30.616L45.552+30.708L45.091+31.158C44.6796+31.5606+44.4926+32.1398+44.591+32.707L44.699+33.341L44.13+33.041C43.6204+32.7716+43.0106+32.7716+42.501+33.041L41.932+33.341L42.04+32.707C42.1384+32.1398+41.9514+31.5606+41.54+31.158L41.079+30.708L41.71+30.616Z" fill-opacity="0.941919" fill="#fffafa" opacity="1"/>
<path d="M106.912+70.669L103.676+70.199L102.229+67.268C101.935+66.6703+101.326+66.2918+100.66+66.2918C99.9938+66.2918+99.3854+66.6703+99.091+67.268L97.644+70.2L94.408+70.67C93.7492+70.7664+93.2021+71.2282+92.9964+71.8614C92.7906+72.4946+92.9618+73.1897+93.438+73.655L95.78+75.938L95.227+79.16C95.1166+79.8157+95.3874+80.4773+95.9258+80.8675C96.4642+81.2577+97.1772+81.309+97.766+81L100.66+79.478L103.554+81C104.144+81.3099+104.858+81.2582+105.397+80.8666C105.936+80.4751+106.206+79.8115+106.093+79.155L105.541+75.933L107.882+73.65C108.359+73.185+108.531+72.4895+108.325+71.856C108.119+71.2225+107.571+70.7607+106.912+70.665L106.912+70.669ZM102.438+74.069C102.026+74.4715+101.839+75.0508+101.938+75.618L102.046+76.252L101.477+75.952C100.967+75.6826+100.358+75.6826+99.848+75.952L99.278+76.252L99.387+75.618C99.4849+75.0509+99.298+74.4719+98.887+74.069L98.426+73.619L99.063+73.527C99.6328+73.4437+100.125+73.0855+100.38+72.569L100.66+72L100.945+72.577C101.2+73.094+101.693+73.4523+102.263+73.535L102.899+73.627L102.438+74.069Z" fill-opacity="0.941919" fill="#fffafa" opacity="1"/>
<path d="M105.06+4.75C99.2828+4.76442+93.8522+7.50808+90.413+12.15C89.9843+12.7328+89.9586+13.5194+90.3485+14.1288C90.7383+14.7383+91.4632+15.0448+92.172+14.9C98.1428+13.612+104.288+16.1505+107.609+21.2768C110.93+26.4032+110.735+33.0492+107.119+37.972C106.73+38.5038+106.672+39.2092+106.97+39.7971C107.268+40.385+107.871+40.7557+108.53+40.756C108.653+40.7558+108.776+40.7428+108.897+40.717C117.979+38.7481+124.116+30.2506+123.13+21.0104C122.145+11.7702+114.353+4.75874+105.06+4.75ZM112.294+35.722C114.342+30.3052+113.69+24.2373+110.539+19.3786C107.388+14.5199+102.114+11.45+96.333+11.11C100.797+7.82265+106.73+7.32609+111.678+9.82581C116.627+12.3255+119.748+17.3963+119.75+22.94C119.73+28.2278+116.887+33.1021+112.294+35.722Z" fill-opacity="0.941919" fill="#fffafa" opacity="1"/>
</g>
</g>
</svg>
