<?xml version="1.0" encoding="UTF-8" standalone="no"?> <!-- Created with Vectornator for iOS (http://vectornator.io/) --><!DOCTYPE svg PUBLIC "-//W3C//DTD SVG 1.1//EN" "http://www.w3.org/Graphics/SVG/1.1/DTD/svg11.dtd">
<svg style="fill-rule:evenodd;clip-rule:evenodd;stroke-linecap:round;stroke-linejoin:round;" xmlns:vectornator="http://vectornator.io" xmlns:xlink="http://www.w3.org/1999/xlink" xmlns="http://www.w3.org/2000/svg" xml:space="preserve" version="1.1" viewBox="0 0 512 512">
<metadata>
<vectornator:setting key="DisplayWhiteBackground" value="0"/>
<vectornator:setting key="RulersVisible" value="1"/>
<vectornator:setting key="Units" value="Pixels"/>
<vectornator:setting key="DynamicGuides" value="1"/>
<vectornator:setting key="GuidesVisible" value="1"/>
<vectornator:setting key="CMYKEnabledKey" value="0"/>
<vectornator:setting key="SnapToGuides" value="1"/>
<vectornator:setting key="GridSpacing" value="36"/>
</metadata>
<defs/>
<g id="Untitled" vectornator:layerName="Untitled">
<g opacity="1">
<path stroke="#fffcfc" stroke-width="35" d="M204.468+249.033C202.632+245.438+198.201+243.997+194.57+245.814L159.805+263.211C156.171+265.028+154.715+269.42+156.552+273.017C158.389+276.615+162.825+278.055+166.457+276.234L201.218+258.838C204.848+257.018+206.303+252.629+204.468+249.033Z" fill="#fffafa" stroke-linecap="round" fill-opacity="0.941919" opacity="1" stroke-linejoin="round"/>
<path stroke="#fffcfc" stroke-width="35" d="M245.623+188.072C243.787+184.475+239.353+183.034+235.722+184.854L201.908+201.775C198.278+203.595+196.822+207.983+198.654+211.58L200.338+214.882L43.731+293.255C40.1004+295.075+38.6456+299.464+40.4809+303.06L45.4275+312.753L8.80173+331.066C7.05613+331.937+5.73204+333.459+5.12155+335.298C4.51105+337.137+4.66431+339.14+5.54751+340.867L22.6311+374.355C23.5095+376.083+25.0466+377.394+26.9029+377.998C28.7593+378.602+30.782+378.449+32.5243+377.573L69.1501+359.26L74.0672+368.894C74.9472+370.621+76.4852+371.932+78.3419+372.535C80.1986+373.139+82.2215+372.987+83.9646+372.112L123.184+352.494C125.446+355.132+128.121+357.396+131.107+359.197L85.8464+489.076C84.5168+492.884+86.5588+497.038+90.4057+498.351C91.1775+498.623+91.9902+498.764+92.8095+498.768C95.9515+498.768+98.7475+496.794+99.7726+493.853L145.088+363.829C146.069+363.916+147.062+363.979+148.068+363.979C149.074+363.979+150.089+363.916+151.082+363.824L196.397+493.853C197.423+496.794+200.219+498.768+203.361+498.768C204.18+498.764+204.993+498.623+205.764+498.351C207.612+497.721+209.131+496.39+209.987+494.65C210.842+492.91+210.963+490.904+210.324+489.076L165.059+359.18C177.168+351.948+183.134+337.769+179.794+324.162L240.601+293.73L242.285+297.065C244.119+300.662+248.551+302.104+252.182+300.288L286+283.363C289.631+281.543+291.085+277.154+289.25+273.558L245.623+188.072ZM32.4527+361.265L22.0081+340.808L52.0623+325.78L62.5027+346.236L32.4527+361.265ZM148.085+349.371C138.204+349.371+130.193+341.439+130.193+331.654C130.193+321.869+138.204+313.936+148.085+313.936C157.966+313.936+165.977+321.869+165.977+331.654C165.965+341.434+157.962+349.36+148.085+349.371ZM173.239+311.093C163.566+299.378+146.968+295.897+133.331+302.725C119.693+309.553+112.684+324.853+116.477+339.512L83.9099+355.799L56.9668+302.993L206.989+227.905L233.933+280.703L173.239+311.093ZM252.111+283.967L215.131+211.509L235.793+201.167L272.777+273.62L252.111+283.967Z" fill="#fffafa" stroke-linecap="round" fill-opacity="0.941919" opacity="1" stroke-linejoin="round"/>
<path stroke="#fffcfc" stroke-width="35" d="M289.76+44.9788L299.615+35.4615C301.623+33.5231+302.346+30.6237+301.479+27.9826C300.612+25.3415+298.307+23.4167+295.531+23.0176L281.908+21.0583L275.821+8.81874C274.58+6.32758+272.018+4.75025+269.213+4.75025C266.408+4.75025+263.847+6.32758+262.606+8.81874L256.514+21.0375L242.895+22.9968C240.12+23.3959+237.814+25.3207+236.948+27.9618C236.081+30.6029+236.804+33.5022+238.812+35.4406L248.667+44.9788L246.343+58.4106C245.864+61.1486+246.999+63.9182+249.27+65.5512C251.54+67.1841+254.551+67.3962+257.032+66.0979L269.211+59.7571L281.395+66.0979C283.876+67.3926+286.884+67.179+289.154+65.5469C291.423+63.9148+292.559+61.1477+292.083+58.4106L289.76+44.9788ZM276.709+37.2082C274.975+38.8853+274.188+41.3011+274.604+43.6656L275.059+46.3086L272.663+45.058C270.518+43.9351+267.951+43.9351+265.805+45.058L263.406+46.3086L263.865+43.6656C264.279+41.3013+263.492+38.8865+261.76+37.2082L259.819+35.3322L262.501+34.9487C264.901+34.6026+266.976+33.1092+268.049+30.955L269.245+28.5538L270.445+30.955C271.517+33.1101+273.592+34.604+275.993+34.9487L278.675+35.3322L276.709+37.2082Z" fill="#fffafa" stroke-linecap="round" fill-opacity="0.941919" opacity="1" stroke-linejoin="round"/>
<path stroke="#fffcfc" stroke-width="35" d="M357.315+119.575L343.696+117.616L337.605+105.393C336.363+102.904+333.803+101.329+330.999+101.329C328.196+101.329+325.636+102.904+324.394+105.393L318.302+117.616L304.692+119.575C301.916+119.973+299.609+121.897+298.741+124.539C297.873+127.18+298.596+130.08+300.604+132.019L310.464+141.532L308.136+154.964C307.661+157.701+308.797+160.467+311.066+162.099C313.334+163.732+316.342+163.947+318.824+162.655L331.008+156.315L343.191+162.655C345.673+163.947+348.681+163.732+350.95+162.099C353.218+160.467+354.354+157.701+353.88+154.964L351.552+141.532L361.411+132.019C363.42+130.08+364.142+127.18+363.274+124.539C362.407+121.897+360.1+119.973+357.324+119.575L357.315+119.575ZM338.484+133.749C336.754+135.428+335.968+137.842+336.38+140.206L336.838+142.849L334.439+141.599C332.294+140.482+329.73+140.482+327.585+141.599L325.186+142.849L325.644+140.206C326.056+137.842+325.27+135.428+323.539+133.749L321.599+131.877L324.276+131.489C326.676+131.145+328.751+129.653+329.825+127.5L331.025+125.095L332.224+127.5C333.298+129.653+335.373+131.145+337.773+131.489L340.45+131.877L338.484+133.749Z" fill="#fffafa" stroke-linecap="round" fill-opacity="0.941919" opacity="1" stroke-linejoin="round"/>
<path stroke="#fffcfc" stroke-width="35" d="M146.536+122.606L144.212+136.042C143.736+138.779+144.872+141.546+147.141+143.178C149.411+144.81+152.419+145.024+154.901+143.729L167.08+137.388L179.263+143.729C181.745+145.024+184.753+144.81+187.023+143.178C189.292+141.546+190.428+138.779+189.952+136.042L187.628+122.606L197.484+113.093C199.492+111.154+200.214+108.255+199.348+105.614C198.481+102.973+196.175+101.048+193.4+100.649L179.781+98.6895L173.689+86.4707C172.449+83.9796+169.887+82.4023+167.082+82.4023C164.277+82.4023+161.715+83.9796+160.475+86.4707L154.4+98.6895L140.781+100.649C138.006+101.048+135.7+102.973+134.833+105.614C133.966+108.255+134.689+111.154+136.697+113.093L146.536+122.606ZM160.336+112.58C162.736+112.234+164.811+110.74+165.884+108.586L167.08+106.185L168.28+108.586C169.353+110.74+171.428+112.234+173.828+112.58L176.51+112.963L174.569+114.839C172.837+116.518+172.05+118.932+172.464+121.297L172.919+123.94L170.524+122.689C168.378+121.566+165.811+121.566+163.666+122.689L161.27+123.94L161.725+121.297C162.139+118.932+161.352+116.518+159.62+114.839L157.679+112.963L160.336+112.58Z" fill="#fffafa" stroke-linecap="round" fill-opacity="0.941919" opacity="1" stroke-linejoin="round"/>
<path stroke="#fffcfc" stroke-width="35" d="M434.827+279.552L421.204+277.593L415.112+265.374C413.873+262.883+411.312+261.305+408.507+261.305C405.702+261.305+403.141+262.883+401.902+265.374L395.81+277.597L382.187+279.556C379.414+279.959+377.111+281.883+376.244+284.523C375.378+287.163+376.099+290.061+378.103+292L387.963+301.518L385.635+314.949C385.17+317.683+386.31+320.441+388.577+322.068C390.843+323.694+393.845+323.908+396.324+322.62L408.507+316.275L420.69+322.62C423.173+323.912+426.18+323.697+428.449+322.064C430.718+320.432+431.854+317.666+431.379+314.929L429.055+301.497L438.911+291.979C440.919+290.041+441.642+287.142+440.775+284.501C439.908+281.86+437.602+279.935+434.827+279.536L434.827+279.552ZM415.992+293.726C414.26+295.404+413.472+297.819+413.887+300.184L414.342+302.827L411.947+301.576C409.801+300.453+407.234+300.453+405.089+301.576L402.689+302.827L403.148+300.184C403.56+297.819+402.773+295.406+401.043+293.726L399.102+291.85L401.784+291.467C404.183+291.119+406.256+289.626+407.328+287.473L408.507+285.101L409.707+287.506C410.779+289.661+412.855+291.155+415.256+291.5L417.933+291.884L415.992+293.726Z" fill="#fffafa" stroke-linecap="round" fill-opacity="0.941919" opacity="1" stroke-linejoin="round"/>
<path stroke="#fffcfc" stroke-width="35" d="M427.031+4.75C402.709+4.81012+379.847+16.2478+365.369+35.599C363.564+38.0285+363.456+41.3076+365.097+43.8484C366.738+46.3891+369.79+47.667+372.774+47.0632C397.91+41.6936+423.781+52.2761+437.762+73.6469C451.743+95.0178+450.922+122.724+435.699+143.245C434.059+145.462+433.816+148.403+435.071+150.854C436.325+153.305+438.864+154.85+441.639+154.851C442.158+154.851+442.676+154.796+443.184+154.689C481.416+146.481+507.254+111.056+503.104+72.5362C498.954+34.0159+466.151+4.78644+427.031+4.75ZM457.485+133.866C466.105+111.284+463.362+85.9883+450.097+65.7335C436.832+45.4787+414.628+32.6809+390.291+31.2635C409.083+17.5592+434.062+15.4892+454.893+25.91C475.724+36.3308+488.863+57.4699+488.873+80.5802C488.791+102.624+476.821+122.944+457.485+133.866Z" fill="#fffafa" stroke-linecap="round" fill-opacity="0.941919" opacity="1" stroke-linejoin="round"/>
</g>
</g>
</svg>
