<?xml version="1.0" encoding="UTF-8" standalone="no"?> <!-- Created with Vectornator for iOS (http://vectornator.io/) --><!DOCTYPE svg PUBLIC "-//W3C//DTD SVG 1.1//EN" "http://www.w3.org/Graphics/SVG/1.1/DTD/svg11.dtd">
<svg style="fill-rule:evenodd;clip-rule:evenodd;stroke-linecap:round;stroke-linejoin:round;" xmlns:vectornator="http://vectornator.io" xmlns:xlink="http://www.w3.org/1999/xlink" xmlns="http://www.w3.org/2000/svg" xml:space="preserve" version="1.1" viewBox="0 0 256 256">
<metadata>
<vectornator:setting key="DisplayWhiteBackground" value="0"/>
<vectornator:setting key="RulersVisible" value="1"/>
<vectornator:setting key="Units" value="Pixels"/>
<vectornator:setting key="DynamicGuides" value="1"/>
<vectornator:setting key="GuidesVisible" value="1"/>
<vectornator:setting key="CMYKEnabledKey" value="0"/>
<vectornator:setting key="SnapToGuides" value="1"/>
<vectornator:setting key="GridSpacing" value="36"/>
</metadata>
<defs/>
<g id="Untitled" vectornator:layerName="Untitled">
<g opacity="1">
<path d="M103.675+126.891C102.765+125.094+100.571+124.374+98.7725+125.282L81.5528+133.98C79.7529+134.889+79.0314+137.085+79.9415+138.884C80.8516+140.682+83.0484+141.403+84.8475+140.492L102.065+131.794C103.863+130.884+104.584+128.69+103.675+126.891Z" fill-opacity="0.941919" fill="#fffafa" opacity="1"/>
<path d="M124.06+96.4113C123.15+94.6127+120.954+93.8922+119.155+94.8021L102.407+103.263C100.609+104.173+99.8876+106.366+100.795+108.165L101.629+109.816L24.0595+149.003C22.2612+149.913+21.5407+152.107+22.4498+153.905L24.8999+158.751L6.75858+167.908C5.89396+168.343+5.23812+169.105+4.93573+170.024C4.63334+170.943+4.70925+171.945+5.14671+172.808L13.6085+189.552C14.0435+190.417+14.8049+191.072+15.7244+191.374C16.6438+191.676+17.6457+191.6+18.5087+191.162L36.65+182.005L39.0855+186.822C39.5214+187.686+40.2832+188.341+41.2028+188.643C42.1225+188.945+43.1245+188.868+43.9878+188.431L63.4136+178.622C64.5344+179.941+65.8593+181.073+67.338+181.974L44.9199+246.913C44.2614+248.817+45.2728+250.894+47.1782+251.551C47.5605+251.687+47.9631+251.757+48.3689+251.759C49.9251+251.759+51.31+250.772+51.8178+249.302L74.263+184.289C74.7488+184.333+75.2409+184.364+75.7393+184.364C76.2376+184.364+76.7402+184.333+77.2323+184.287L99.6774+249.302C100.185+250.772+101.57+251.759+103.126+251.759C103.532+251.757+103.935+251.687+104.317+251.551C105.232+251.236+105.985+250.57+106.408+249.7C106.832+248.83+106.892+247.827+106.575+246.913L84.1552+181.965C90.1526+178.349+93.1077+171.26+91.4534+164.456L121.572+149.24L122.406+150.908C123.315+152.706+125.51+153.427+127.309+152.519L144.059+144.056C145.857+143.146+146.578+140.952+145.669+139.154L124.06+96.4113ZM18.4733+183.007L13.2999+172.779L28.1862+165.265L33.3575+175.493L18.4733+183.007ZM75.7476+177.061C70.8532+177.061+66.8855+173.094+66.8855+168.202C66.8855+163.309+70.8532+159.343+75.7476+159.343C80.642+159.343+84.6097+163.309+84.6097+168.202C84.604+173.092+80.6396+177.055+75.7476+177.061ZM88.2067+157.922C83.4158+152.064+75.1946+150.324+68.4395+153.738C61.6845+157.152+58.2127+164.802+60.0919+172.131L43.9607+180.275L30.6154+153.872L104.924+116.328L118.269+142.727L88.2067+157.922ZM127.273+144.359L108.957+108.13L119.191+102.958L137.509+139.185L127.273+144.359Z" fill-opacity="0.941919" fill="#fffafa" opacity="1"/>
<path d="M145.921+24.8644L150.803+20.1057C151.797+19.1365+152.155+17.6869+151.726+16.3663C151.297+15.0458+150.155+14.0834+148.78+13.8838L142.032+12.9042L139.017+6.78437C138.402+5.53879+137.134+4.75013+135.744+4.75013C134.355+4.75013+133.086+5.53879+132.471+6.78437L129.454+12.8937L122.709+13.8734C121.334+14.0729+120.192+15.0353+119.763+16.3559C119.333+17.6765+119.691+19.1261+120.686+20.0953L125.567+24.8644L124.416+31.5803C124.179+32.9493+124.741+34.3341+125.866+35.1506C126.99+35.9671+128.482+36.0731+129.711+35.424L135.743+32.2536L141.778+35.424C143.007+36.0713+144.497+35.9645+145.621+35.1485C146.745+34.3324+147.308+32.9489+147.072+31.5803L145.921+24.8644ZM139.457+20.9791C138.598+21.8177+138.208+23.0256+138.414+24.2078L138.64+25.5293L137.453+24.904C136.39+24.3426+135.119+24.3426+134.056+24.904L132.868+25.5293L133.095+24.2078C133.3+23.0257+132.91+21.8183+132.052+20.9791L131.091+20.0411L132.419+19.8494C133.608+19.6763+134.636+18.9296+135.168+17.8525L135.76+16.6519L136.354+17.8525C136.885+18.9301+137.913+19.677+139.102+19.8494L140.431+20.0411L139.457+20.9791Z" fill-opacity="0.941919" fill="#fffafa" opacity="1"/>
<path d="M179.382+62.1626L172.637+61.1829L169.619+55.0715C169.004+53.827+167.736+53.0393+166.348+53.0393C164.959+53.0393+163.691+53.827+163.076+55.0715L160.059+61.1829L153.317+62.1626C151.942+62.3615+150.8+63.3236+150.37+64.6443C149.94+65.965+150.298+67.415+151.293+68.3845L156.176+73.1411L155.023+79.857C154.788+81.2254+155.351+82.6085+156.474+83.4247C157.598+84.2409+159.088+84.3487+160.317+83.7027L166.352+80.5323L172.386+83.7027C173.616+84.3487+175.106+84.2409+176.229+83.4247C177.353+82.6085+177.916+81.2254+177.681+79.857L176.528+73.1411L181.411+68.3845C182.406+67.415+182.764+65.965+182.334+64.6443C181.904+63.3236+180.762+62.3615+179.387+62.1626L179.382+62.1626ZM170.055+69.2495C169.198+70.0893+168.809+71.2961+169.013+72.4782L169.24+73.7997L168.051+73.1744C166.989+72.6159+165.719+72.6159+164.657+73.1744L163.468+73.7997L163.695+72.4782C163.899+71.2961+163.51+70.0893+162.653+69.2495L161.691+68.3136L163.018+68.1198C164.206+67.9475+165.234+67.2015+165.766+66.125L166.36+64.9223L166.955+66.125C167.486+67.2015+168.514+67.9475+169.703+68.1198L171.029+68.3136L170.055+69.2495Z" fill-opacity="0.941919" fill="#fffafa" opacity="1"/>
<path d="M74.9803+63.6779L73.8292+70.3959C73.5936+71.7645+74.1562+73.148+75.2803+73.9641C76.4043+74.7801+77.8945+74.8869+79.1236+74.2396L85.1561+71.0692L91.1906+74.2396C92.4197+74.8869+93.9099+74.7801+95.034+73.9641C96.158+73.148+96.7206+71.7645+96.485+70.3959L95.334+63.6779L100.215+58.9213C101.21+57.9521+101.568+56.5025+101.139+55.1819C100.71+53.8614+99.5674+52.899+98.1928+52.6994L91.4471+51.7197L88.4298+45.6104C87.8153+44.3648+86.5465+43.5761+85.1571+43.5761C83.7677+43.5761+82.4989+44.3648+81.8844+45.6104L78.8754+51.7198L72.1298+52.6994C70.7551+52.899+69.613+53.8614+69.1837+55.1819C68.7545+56.5025+69.1124+57.9521+70.1071+58.9213L74.9803+63.6779ZM81.8156+58.665C83.0045+58.4919+84.0323+57.7452+84.5639+56.6681L85.1561+55.4675L85.7503+56.6681C86.282+57.7452+87.3097+58.4919+88.4986+58.665L89.8269+58.8567L88.8656+59.7947C88.0078+60.6339+87.6179+61.8413+87.823+63.0234L88.0482+64.3449L86.8618+63.7196C85.7991+63.1582+84.5276+63.1582+83.465+63.7196L82.2785+64.3449L82.5037+63.0234C82.7088+61.8413+82.319+60.6339+81.4611+59.7947L80.4998+58.8567L81.8156+58.665Z" fill-opacity="0.941919" fill="#fffafa" opacity="1"/>
<path d="M217.775+142.151L211.027+141.172L208.01+135.062C207.396+133.816+206.128+133.027+204.738+133.027C203.349+133.027+202.081+133.816+201.467+135.062L198.449+141.174L191.702+142.153C190.328+142.354+189.187+143.317+188.758+144.637C188.329+145.956+188.686+147.405+189.679+148.375L194.563+153.134L193.41+159.85C193.179+161.217+193.744+162.596+194.867+163.409C195.989+164.222+197.476+164.329+198.704+163.685L204.738+160.513L210.773+163.685C212.003+164.331+213.492+164.223+214.616+163.407C215.74+162.591+216.302+161.208+216.067+159.839L214.916+153.123L219.798+148.365C220.793+147.396+221.15+145.946+220.721+144.625C220.292+143.305+219.15+142.342+217.775+142.143L217.775+142.151ZM208.446+149.238C207.588+150.077+207.198+151.285+207.403+152.467L207.629+153.788L206.442+153.163C205.379+152.602+204.108+152.602+203.045+153.163L201.857+153.788L202.084+152.467C202.288+151.285+201.898+150.078+201.041+149.238L200.08+148.3L201.408+148.108C202.597+147.935+203.623+147.188+204.155+146.112L204.738+144.926L205.333+146.128C205.864+147.206+206.892+147.953+208.081+148.125L209.407+148.317L208.446+149.238Z" fill-opacity="0.941919" fill="#fffafa" opacity="1"/>
<path d="M213.913+4.75C201.867+4.78006+190.543+10.4989+183.371+20.1745C182.477+21.3893+182.424+23.0288+183.237+24.2992C184.05+25.5696+185.561+26.2085+187.039+25.9066C199.49+23.2218+212.304+28.513+219.229+39.1985C226.154+49.8839+225.747+63.7368+218.207+73.9978C217.395+75.1061+217.275+76.5766+217.896+77.8021C218.517+79.0275+219.775+79.8+221.149+79.8007C221.406+79.8004+221.663+79.7731+221.914+79.7194C240.851+75.6154+253.649+57.9033+251.594+38.6431C249.538+19.383+233.29+4.76822+213.913+4.75ZM228.998+69.3079C233.267+58.017+231.909+45.3692+225.339+35.2418C218.768+25.1144+207.77+18.7154+195.716+18.0067C205.024+11.1546+217.396+10.1196+227.714+15.33C238.032+20.5404+244.54+31.11+244.545+42.6651C244.504+53.6869+238.575+63.847+228.998+69.3079Z" fill-opacity="0.941919" fill="#fffafa" opacity="1"/>
</g>
</g>
</svg>
