<?xml version="1.0" encoding="UTF-8" standalone="no"?> <!-- Created with Vectornator for iOS (http://vectornator.io/) --><!DOCTYPE svg PUBLIC "-//W3C//DTD SVG 1.1//EN" "http://www.w3.org/Graphics/SVG/1.1/DTD/svg11.dtd">
<svg style="fill-rule:evenodd;clip-rule:evenodd;stroke-linecap:round;stroke-linejoin:round;" xmlns:vectornator="http://vectornator.io" xmlns:xlink="http://www.w3.org/1999/xlink" xmlns="http://www.w3.org/2000/svg" xml:space="preserve" version="1.1" viewBox="0 0 256 256">
<metadata>
<vectornator:setting key="DynamicGuides" value="1"/>
<vectornator:setting key="Units" value="Pixels"/>
<vectornator:setting key="GuidesVisible" value="1"/>
<vectornator:setting key="RulersVisible" value="1"/>
<vectornator:setting key="SnapToGuides" value="1"/>
<vectornator:setting key="GridSpacing" value="36"/>
</metadata>
<defs/>
<g id="Untitled" vectornator:layerName="Untitled">
<path d="M254.966+64.7761L255.677+64.3622C254.254+62.0857+252.12+60.0162+249.985+58.9814L135.428+1.44867C133.531+0.413905+130.922+0+128.076+0C125.23+0+122.621+0.620857+120.723+1.44867L6.87815+59.1884C2.84613+61.2579+0+66.4317+0+70.3638L0+185.636C0+187.913+0.474355+190.396+2.1346+192.673L1.66024+192.88C2.84613+194.535+4.50637+195.984+6.16661+196.812L120.486+254.551C122.384+255.586+124.993+256+127.839+256C130.685+256+133.294+255.379+135.191+254.551L249.036+196.812C253.068+194.742+255.914+189.568+255.914+185.636L255.914+70.1568C256.152+68.5012+255.914+66.6386+254.966+64.7761ZM128.076+178.6C149.659+178.6+168.633+168.252+178.595+152.938L209.191+168.666C193.062+193.087+162.704+209.643+128.076+209.643C76.3711+209.643+34.3907+173.012+34.3907+127.897C34.3907+82.7809+76.3711+46.1504+128.076+46.1504C162.941+46.1504+193.3+62.9135+209.428+87.5408L178.595+103.062C168.633+87.5408+149.659+77.1932+128.076+77.1932C96.0569+77.1932+69.9673+99.958+69.9673+127.897C69.9673+155.835+96.0569+178.6+128.076+178.6Z" opacity="1" fill="#ffffff"/>
</g>
</svg>
