<?xml version="1.0" encoding="UTF-8" standalone="no"?> <!-- Created with Vectornator for iOS (http://vectornator.io/) --><!DOCTYPE svg PUBLIC "-//W3C//DTD SVG 1.1//EN" "http://www.w3.org/Graphics/SVG/1.1/DTD/svg11.dtd">
<svg style="fill-rule:evenodd;clip-rule:evenodd;stroke-linecap:round;stroke-linejoin:round;" xmlns:vectornator="http://vectornator.io" xmlns:xlink="http://www.w3.org/1999/xlink" xmlns="http://www.w3.org/2000/svg" xml:space="preserve" version="1.1" viewBox="0 0 256 256">
<metadata>
<vectornator:setting key="DynamicGuides" value="1"/>
<vectornator:setting key="Units" value="Pixels"/>
<vectornator:setting key="GuidesVisible" value="1"/>
<vectornator:setting key="RulersVisible" value="1"/>
<vectornator:setting key="SnapToGuides" value="1"/>
<vectornator:setting key="GridSpacing" value="36"/>
</metadata>
<defs/>
<g id="Untitled" vectornator:layerName="Untitled">
<path d="M254.966+64.9971L255.677+64.5818C254.254+62.2976+252.12+60.221+249.985+59.1827L135.428+1.45361C133.531+0.415317+130.922+0+128.076+0C125.23+0+122.621+0.622976+120.723+1.45361L6.87815+59.3904C2.84613+61.4669+0+66.6584+0+70.6039L0+186.27C0+188.554+0.474355+191.046+2.1346+193.33L1.66024+193.538C2.84613+195.199+4.50637+196.653+6.16661+197.483L120.486+255.42C122.384+256.458+124.993+256.874+127.839+256.874C130.685+256.874+133.294+256.251+135.191+255.42L249.036+197.483C253.068+195.407+255.914+190.215+255.914+186.27L255.914+70.3963C256.152+68.735+255.914+66.8661+254.966+64.9971ZM170.768+132.486L170.768+124.18L182.627+124.18L182.627+113.797L194.486+113.797L194.486+124.18L206.344+124.18L206.344+132.486L194.486+132.486L194.486+142.869L182.627+142.869L182.627+132.486L170.768+132.486ZM178.595+103.414C168.633+87.8396+149.659+77.4566+128.076+77.4566C96.0569+77.4566+69.9673+100.299+69.9673+128.333C69.9673+156.367+96.0569+179.209+128.076+179.209C149.659+179.209+168.633+168.826+178.595+153.46L209.191+169.242C193.062+193.745+162.704+210.358+128.076+210.358C76.3711+210.358+34.3907+173.603+34.3907+128.333C34.3907+83.0634+76.3711+46.3079+128.076+46.3079C162.941+46.3079+193.3+63.1282+209.428+87.8396C209.428+87.8396+178.595+103.414+178.595+103.414ZM249.036+132.486L237.177+132.486L237.177+142.869L227.69+142.869L227.69+132.486L213.46+132.486L213.46+124.18L227.69+124.18L227.69+113.797L237.177+113.797L237.177+124.18L249.036+124.18L249.036+132.486Z" opacity="1" fill="#ffffff"/>
</g>
</svg>
