<?xml version="1.0" encoding="UTF-8" standalone="no"?> <!-- Created with Vectornator for iOS (http://vectornator.io/) --><!DOCTYPE svg PUBLIC "-//W3C//DTD SVG 1.1//EN" "http://www.w3.org/Graphics/SVG/1.1/DTD/svg11.dtd">
<svg style="fill-rule:evenodd;clip-rule:evenodd;stroke-linecap:round;stroke-linejoin:round;" xmlns:vectornator="http://vectornator.io" xmlns:xlink="http://www.w3.org/1999/xlink" xmlns="http://www.w3.org/2000/svg" xml:space="preserve" version="1.1" viewBox="0 0 256 256">
<metadata>
<vectornator:setting key="DynamicGuides" value="1"/>
<vectornator:setting key="Units" value="Pixels"/>
<vectornator:setting key="GuidesVisible" value="1"/>
<vectornator:setting key="RulersVisible" value="1"/>
<vectornator:setting key="SnapToGuides" value="1"/>
<vectornator:setting key="GridSpacing" value="36"/>
</metadata>
<defs/>
<g id="Untitled" vectornator:layerName="Untitled">
<path d="M252.722+101.567C243.911+96.1062+232.232+95.4509+222.397+98.5092C221.167+87.1498+214.201+77.3195+206.005+70.3291L202.727+67.4892L199.858+70.9844C194.326+77.7564+192.687+89.1158+193.506+97.8538C194.121+104.189+195.965+110.742+199.653+115.985C196.784+117.733+193.711+120.136+190.842+121.228C185.105+123.413+178.753+125.597+172.607+125.597L158.878+125.597L158.878+94.7955L132.242+94.7955L132.242+40.1829L101.507+40.1829L101.507+66.397L50.2824+66.397L50.2824+94.7955L23.6457+94.7955L23.6457+125.379L0.697114+125.379L0.287318+128.655C-0.737172+142.636+0.902012+156.18+6.43426+169.069L8.68813+173.875L8.89303+174.311C25.08+203.584+53.3559+215.817+84.2955+215.817C144.126+215.817+193.506+187.2+216.045+127.126C231.207+128+246.78+123.194+254.156+107.684L256+103.752C256+103.752+252.722+101.568+252.722+101.567ZM54.3804+72.9505L74.8702+72.9505L74.8702+96.98L54.3804+96.98L54.3804+72.9505ZM81.222+169.506C81.222+173.219+78.3534+176.278+74.8702+176.278C71.3869+176.278+68.5183+173.219+68.5183+169.506C68.5183+165.792+71.3869+162.734+74.8702+162.734C78.3534+162.952+81.222+165.792+81.222+169.506ZM54.3804+101.349L74.8702+101.349L74.8702+125.379L54.3804+125.379L54.3804+101.349ZM27.7436+101.349L50.2824+101.349L50.2824+125.379L27.7436+125.379L27.7436+101.349ZM84.5004+211.011C52.1265+210.793+34.7102+199.215+20.3673+183.923C24.6702+184.142+28.7681+184.36+32.4563+184.36C35.7347+184.36+39.013+184.36+42.0865+184.142C50.0775+183.705+57.0441+182.613+62.7812+180.865C67.4939+192.443+76.0996+203.147+91.4669+211.011C91.4669+211.011+84.5004+211.011+84.5004+211.011ZM101.507+125.379L78.9681+125.379L78.9681+101.349L101.507+101.349L101.507+125.379ZM101.507+96.98L78.9681+96.98L78.9681+72.9505L101.507+72.9505L101.507+96.98ZM128.144+125.379L105.605+125.379L105.605+101.349L128.144+101.349L128.144+125.379ZM128.144+96.98L105.605+96.98L105.605+72.9505L128.144+72.9505L128.144+96.98ZM128.144+68.5815L105.605+68.5815L105.605+44.5519L128.144+44.5519L128.144+68.5815ZM154.78+125.379L132.242+125.379L132.242+101.349L154.78+101.349L154.78+125.379ZM76.5094+165.137C76.0996+164.918+75.4849+164.7+74.8702+164.7C72.4114+164.7+70.3624+166.884+70.3624+169.506C70.3624+172.127+72.4114+174.311+74.8702+174.311C77.3289+174.311+79.3779+172.127+79.3779+169.506C79.3779+168.85+79.173+168.195+78.9681+167.758C78.5583+168.413+78.1485+168.85+77.3289+168.85C76.3045+168.85+75.4849+167.976+75.4849+166.884C75.6898+166.01+76.0996+165.355+76.5094+165.137Z" opacity="1" fill="#fcfcfc"/>
</g>
</svg>
