<?xml version="1.0" encoding="UTF-8" standalone="no"?> <!-- Created with Vectornator for iOS (http://vectornator.io/) --><!DOCTYPE svg PUBLIC "-//W3C//DTD SVG 1.1//EN" "http://www.w3.org/Graphics/SVG/1.1/DTD/svg11.dtd">
<svg style="fill-rule:evenodd;clip-rule:evenodd;stroke-linecap:round;stroke-linejoin:round;" xmlns:vectornator="http://vectornator.io" xmlns:xlink="http://www.w3.org/1999/xlink" xmlns="http://www.w3.org/2000/svg" xml:space="preserve" version="1.1" viewBox="0 0 256 256">
<metadata>
<vectornator:setting key="DynamicGuides" value="1"/>
<vectornator:setting key="Units" value="Pixels"/>
<vectornator:setting key="GuidesVisible" value="1"/>
<vectornator:setting key="RulersVisible" value="1"/>
<vectornator:setting key="SnapToGuides" value="1"/>
<vectornator:setting key="GridSpacing" value="36"/>
</metadata>
<defs/>
<g id="Untitled" vectornator:layerName="Untitled">
<path d="M247.927+189.074C233.437+149.028+221.409+107.956+207.565+67.6458C201.45+50.4835+195.466+33.1776+187.131+17.1198C183.821+11.3548+180.653+5.01558+175.224+1.32695C173.854+0.374354+172.31-0.0300863+170.784+0.00172881C168.242+0.0545759+165.714+1.29931+163.771+3.09395C156.486+9.41105+152.167+18.5997+147.324+27.0594C138.767+42.7638+129.746+59.2082+115.437+69.4128C108.717+74.6034+99.9176+75.1667+93.4395+80.7329C84.5799+88.0439+78.5558+98.4142+71.2904+107.404C69.6357+109.569+67.0726+110.43+64.8325+111.601C43.1576+121.275+21.4728+130.927+0+141.088C18.1833+156.483+37.5574+170.178+56.104+185.043C61.1898+183.938+66.2956+181.652+71.5427+182.668C79.8575+185.518+84.7312+194.242+88.5455+202.216C96.2951+219.599+101.895+237.954+108.172+256C118.666+255.183+128.111+249.263+136.224+242.306C151.844+228.456+163.741+210.565+176.839+194.044C183.115+186.821+189.513+178.218+198.937+176.208C208.463+173.69+218.665+177.422+225.728+184.601C235.637+194.298+244.416+205.507+256+212.929C254.446+204.535+250.713+197.003+247.927+189.074ZM85.9219+160.856C76.7798+166.776+67.0726+171.646+57.5671+176.815C42.6531+165.882+28.1227+154.296+13.471+142.965C33.2285+133.49+53.2887+124.688+73.3085+115.852C82.7938+123.959+92.5818+131.656+102.067+139.763C97.6069+147.56+92.2386+154.804+85.9219+160.856ZM106.255+133.688C96.8299+125.936+87.2842+118.393+78.0007+110.441C83.9542+101.562+90.4728+92.9805+98.2829+85.9787C103.449+82.3563+109.766+81.3512+115.134+78.0823C127.869+71.1245+136.557+58.3578+144.851+46.1653C134.216+76.3815+122.864+106.719+106.255+133.688Z" opacity="1" fill="#ffffff"/>
</g>
</svg>
