<?xml version="1.0" encoding="UTF-8" standalone="no"?> <!-- Created with Vectornator for iOS (http://vectornator.io/) --><!DOCTYPE svg PUBLIC "-//W3C//DTD SVG 1.1//EN" "http://www.w3.org/Graphics/SVG/1.1/DTD/svg11.dtd">
<svg style="fill-rule:evenodd;clip-rule:evenodd;stroke-linecap:round;stroke-linejoin:round;" xmlns:vectornator="http://vectornator.io" xmlns:xlink="http://www.w3.org/1999/xlink" xmlns="http://www.w3.org/2000/svg" xml:space="preserve" version="1.1" viewBox="0 0 512 512">
<metadata>
<vectornator:setting key="RulersVisible" value="1"/>
<vectornator:setting key="Units" value="Pixels"/>
<vectornator:setting key="DynamicGuides" value="1"/>
<vectornator:setting key="GuidesVisible" value="1"/>
<vectornator:setting key="CMYKEnabledKey" value="0"/>
<vectornator:setting key="SnapToGuides" value="1"/>
<vectornator:setting key="GridSpacing" value="36"/>
</metadata>
<defs/>
<g id="Untitled" vectornator:layerName="Untitled">
<path stroke="#fffcfc" stroke-width="25" d="M43.7108+268.877C43.7108+275.506+38.5953+280.879+32.2838+280.879L11.427+280.879C5.11548+280.879+0+275.506+0+268.877C0+262.248+5.11548+256.875+11.427+256.875L32.2838+256.875C38.594+256.875+43.7108+262.248+43.7108+268.877ZM152.499+374.133C152.216+377.487+153.289+380.81+155.454+383.293C157.619+385.776+160.676+387.19+163.882+387.19L185.899+387.19C192.211+387.19+197.326+381.817+197.326+375.188C197.326+368.559+192.211+363.186+185.899+363.186L177.721+363.186C186.549+333.168+216.442+307.729+256.467+297.267C296.49+307.729+326.383+333.166+335.213+363.186L327.033+363.186C320.721+363.186+315.606+368.559+315.606+375.188C315.606+381.817+320.721+387.19+327.033+387.19L349.054+387.19C352.258+387.19+355.318+385.775+357.482+383.293C359.647+380.81+360.719+377.487+360.436+374.133C358.447+350.449+347.351+328.256+328.353+309.951C310.297+292.553+286.33+279.855+259.041+273.231C257.347+272.821+255.586+272.821+253.895+273.231C226.606+279.856+202.639+292.553+184.583+309.951C165.582+328.255+154.489+350.449+152.499+374.133ZM414.191+114.728C417.117+114.728+420.039+113.555+422.272+111.212L437.016+95.7245C441.479+91.0371+441.479+83.4386+437.016+78.7512C432.552+74.0638+425.319+74.0651+420.855+78.7512L406.11+94.239C401.647+98.9264+401.647+106.525+406.11+111.212C408.342+113.557+411.266+114.728+414.191+114.728ZM255.997+45.9073C262.309+45.9073+267.424+40.5344+267.424+33.9054L267.424+12.0019C267.424+5.37285+262.309-3.95816e-06+255.997-3.95816e-06C249.686-3.95816e-06+244.57+5.37285+244.57+12.0019L244.57+33.9054C244.57+40.5344+249.686+45.9073+255.997+45.9073ZM89.7272+111.214C91.958+113.557+94.8821+114.729+97.8061+114.729C100.73+114.729+103.655+113.557+105.886+111.212C110.349+106.525+110.349+98.9264+105.885+94.239L91.1378+78.7525C86.6762+74.0651+79.4391+74.0651+74.9775+78.7538C70.5146+83.4412+70.5146+91.0398+74.9788+95.7272L89.7272+111.214ZM230.043+464.872C223.731+464.872+218.616+470.245+218.616+476.874L218.616+487.996L136.359+487.996C121.468+487.996+109.352+475.271+109.352+459.629C109.352+443.987+121.468+431.262+136.359+431.262L218.031+431.262C224.342+431.262+229.458+425.889+229.458+419.26C229.458+412.631+224.342+407.258+218.031+407.258L136.359+407.258C108.866+407.258+86.4985+430.752+86.4985+459.629C86.4985+488.506+108.866+512+136.359+512L230.043+512C236.354+512+241.47+506.627+241.47+499.998L241.47+476.874C241.47+470.247+236.353+464.872+230.043+464.872ZM500.573+256.875L479.719+256.875C473.407+256.875+468.292+262.248+468.292+268.877C468.292+275.506+473.407+280.879+479.719+280.879L500.573+280.879C506.885+280.879+512+275.506+512+268.877C512+262.248+506.884+256.875+500.573+256.875ZM255.997+75.8894C153.034+75.8894+69.2691+163.871+69.2691+272.017C69.2691+309.697+79.4709+346.303+98.7723+377.872C100.956+381.443+104.637+383.392+108.399+383.39C110.512+383.39+112.652+382.775+114.562+381.486C119.873+377.904+121.413+370.479+118.003+364.901C101.072+337.208+92.1218+305.088+92.1218+272.015C92.1218+177.107+165.635+99.8919+255.996+99.8919C346.36+99.8919+419.876+177.105+419.876+272.015C419.876+305.091+410.925+337.21+393.991+364.899C390.579+370.476+392.119+377.901+397.429+381.483C402.742+385.068+409.811+383.448+413.22+377.872C432.525+346.304+442.73+309.7+442.73+272.015C442.731+163.871+358.963+75.8894+255.997+75.8894ZM252.997+249.244C229.812+241.485+214.236+219.092+214.236+193.519C214.236+167.945+229.814+145.551+252.999+137.794C255.255+137.04+257.678+137.04+259.935+137.794C283.12+145.551+298.696+167.945+298.696+193.519C298.696+219.091+283.119+241.485+259.936+249.244C258.807+249.621+257.637+249.81+256.467+249.81C255.298+249.81+254.125+249.621+252.997+249.244ZM256.466+224.985C268.191+219.484+275.842+207.282+275.842+193.52C275.842+179.755+268.194+167.555+256.466+162.055C244.738+167.555+237.088+179.755+237.088+193.52C237.088+207.284+244.738+219.484+256.466+224.985ZM376.575+407.258L294.901+407.258C288.59+407.258+283.474+412.631+283.474+419.26C283.474+425.889+288.59+431.262+294.901+431.262L376.575+431.262C391.467+431.262+403.582+443.988+403.582+459.629C403.582+475.27+391.467+487.996+376.575+487.996L294.318+487.996L294.318+476.874C294.318+470.245+289.203+464.873+282.891+464.873C276.58+464.873+271.464+470.245+271.464+476.874L271.464+499.998C271.464+506.627+276.58+512+282.891+512L376.575+512C404.068+512+426.436+488.507+426.436+459.629C426.436+430.751+404.068+407.258+376.575+407.258ZM256.466+322.338C250.154+322.338+245.039+327.711+245.039+334.34L245.039+419.261C245.039+425.89+250.154+431.263+256.466+431.263C262.777+431.263+267.893+425.89+267.893+419.261L267.893+334.34C267.893+327.711+262.777+322.338+256.466+322.338Z" fill="#ffffff" stroke-linecap="round" opacity="0.984408" stroke-linejoin="round"/>
</g>
</svg>
