<?xml version="1.0" encoding="UTF-8" standalone="no"?> <!-- Created with Vectornator for iOS (http://vectornator.io/) --><!DOCTYPE svg PUBLIC "-//W3C//DTD SVG 1.1//EN" "http://www.w3.org/Graphics/SVG/1.1/DTD/svg11.dtd">
<svg style="fill-rule:evenodd;clip-rule:evenodd;stroke-linecap:round;stroke-linejoin:round;" xmlns:vectornator="http://vectornator.io" xmlns:xlink="http://www.w3.org/1999/xlink" xmlns="http://www.w3.org/2000/svg" xml:space="preserve" version="1.1" viewBox="0 0 512 512">
<metadata>
<vectornator:setting key="DynamicGuides" value="1"/>
<vectornator:setting key="Units" value="Pixels"/>
<vectornator:setting key="GuidesVisible" value="1"/>
<vectornator:setting key="GridSpacing" value="36"/>
<vectornator:setting key="SnapToGuides" value="1"/>
<vectornator:setting key="RulersVisible" value="1"/>
</metadata>
<defs/>
<g id="Untitled" vectornator:layerName="Untitled">
<g opacity="1">
<path stroke="#fffcfc" stroke-width="35" d="M428.487+416.533C420.3+420.822+411.319+423.479+401.795+424.432C399.75+424.637+397.878+425.672+396.617+427.296C395.356+428.92+394.818+430.99+395.127+433.023C395.559+435.856+395.759+438.191+395.759+440.371C395.759+471.597+366.094+497+329.63+497C303.067+497+279.169+483.455+268.746+462.491C267.56+460.107+265.729+458.181+263.5+456.855L263.5+362.088C264.07+362.068+264.639+362.048+265.221+362.028C279.877+361.508+298.107+360.854+308.262+370.653C313.49+375.697+316.535+383.568+317.365+394.079C308.75+397.239+302.586+405.517+302.586+415.206C302.586+427.611+312.689+437.704+325.106+437.704C337.523+437.704+347.626+427.611+347.626+415.206C347.626+405.35+341.246+396.96+332.398+393.926C331.404+379.141+326.803+367.698+318.679+359.858C303.938+345.634+281.252+346.446+264.687+347.037C264.286+347.051+263.896+347.065+263.501+347.079L263.501+299.929C340.007+300.084+378.623+303.22+381.967+344.441C373.353+347.602+367.19+355.879+367.19+365.568C367.19+377.973+377.293+388.066+389.71+388.066C402.127+388.066+412.23+377.973+412.23+365.568C412.23+355.707+405.844+347.315+396.989+344.284C395.14+317.698+381.234+300.73+354.617+292.524C331.528+285.406+300.004+284.953+263.501+284.925L263.501+238.064C300.004+238.035+331.528+237.583+354.617+230.465C381.234+222.259+395.14+205.291+396.989+178.705C405.844+175.674+412.23+167.281+412.23+157.42C412.23+145.015+402.127+134.923+389.71+134.923C377.293+134.923+367.19+145.015+367.19+157.42C367.19+167.109+373.353+175.387+381.967+178.548C378.623+219.769+340.007+222.905+263.501+223.06L263.501+177.399C263.896+177.413+264.285+177.426+264.687+177.441C268.197+177.566+271.981+177.702+275.906+177.702C290.509+177.702+307.061+175.83+318.679+164.62C326.804+156.781+331.404+145.337+332.398+130.553C341.246+127.518+347.626+119.128+347.626+109.272C347.626+96.867+337.523+86.775+325.106+86.775C312.689+86.775+302.586+96.867+302.586+109.272C302.586+118.961+308.749+127.24+317.365+130.4C316.535+140.911+313.49+148.782+308.262+153.825C298.107+163.624+279.871+162.969+265.222+162.45C264.64+162.429+264.071+162.409+263.5+162.39L263.5+129.896C263.5+125.753+260.143+122.396+256+122.396C251.857+122.396+248.5+125.753+248.5+129.896L248.5+456.857C246.271+458.183+244.439+460.11+243.253+462.495C232.831+483.455+208.933+497+182.37+497C145.906+497+116.241+471.597+116.241+440.371C116.241+438.191+116.441+435.856+116.873+433.023C116.89+432.899+118.712+420.469+127.26+412.223C130.241+409.348+130.326+404.6+127.45+401.619C124.574+398.639+119.825+398.551+116.846+401.429C109.482+408.533+105.669+417.346+103.768+423.484C86.307+420.174+70.771+410.761+61.377+397.526C58.98+394.151+54.297+393.355+50.919+395.752C47.542+398.15+46.747+402.832+49.145+406.21C61.005+422.917+79.729+434.366+101.284+438.311C101.257+439.007+101.243+439.692+101.243+440.373C101.243+479.869+137.638+512.002+182.372+512.002C214.024+512.002+242.743+495.765+256.002+470.513C269.26+495.764+297.978+512+329.63+512C374.364+512+410.759+479.867+410.759+440.371C410.759+439.69+410.745+439.006+410.718+438.309C419.43+436.711+427.721+433.868+435.448+429.82C439.117+427.898+440.533+423.365+438.611+419.696C436.689+416.026+432.158+414.61+428.487+416.533ZM325.105+407.71C329.251+407.71+332.625+411.073+332.625+415.207C332.625+419.342+329.252+422.705+325.105+422.705C320.958+422.705+317.585+419.342+317.585+415.207C317.586+411.073+320.959+407.71+325.105+407.71ZM389.709+358.071C393.855+358.071+397.229+361.434+397.229+365.568C397.229+369.703+393.856+373.066+389.709+373.066C385.562+373.066+382.189+369.703+382.189+365.568C382.189+361.435+385.563+358.071+389.709+358.071ZM389.709+149.923C393.855+149.923+397.229+153.286+397.229+157.42C397.229+161.555+393.856+164.918+389.709+164.918C385.562+164.918+382.189+161.555+382.189+157.42C382.189+153.286+385.563+149.923+389.709+149.923ZM325.105+101.773C329.251+101.773+332.625+105.136+332.625+109.27C332.625+113.405+329.252+116.768+325.105+116.768C320.958+116.768+317.585+113.405+317.585+109.27C317.586+105.137+320.959+101.773+325.105+101.773Z" fill="#fffefe" stroke-linecap="round" opacity="1" stroke-linejoin="round"/>
<path stroke="#fffcfc" stroke-width="35" d="M51.815+368.226C51.815+354.662+57.516+341.147+67.457+331.15C69.375+329.22+70.099+326.404+69.347+323.789C68.595+321.175+66.486+319.172+63.835+318.557C35.082+311.878+15+289.45+15+264.016C15+248.196+22.369+233.162+35.749+221.683C37.351+220.31+38.299+218.326+38.362+216.217C38.426+214.109+37.599+212.071+36.085+210.604C28.424+203.182+24.205+193.683+24.205+183.855C24.205+161.822+44.507+144.021+70.423+143.331C70.54+143.332+81.979+143.521+90.018+150.631C91.445+151.893+93.218+152.513+94.984+152.513C97.058+152.513+99.123+151.658+100.605+149.982C103.349+146.879+103.058+142.139+99.956+139.395C91.314+131.752+80.591+129.392+74.664+128.662C71.762+123.337+70.223+117.544+70.223+111.711C70.223+99.319+76.777+87.754+88.204+79.982C91.629+77.653+92.517+72.988+90.187+69.563C87.858+66.138+83.192+65.249+79.768+67.58C64.168+78.189+55.222+94.275+55.222+111.712C55.222+117.796+56.361+123.826+58.563+129.559C30.12+134.941+9.205+157.114+9.205+183.857C9.205+195.277+13.132+206.294+20.393+215.553C7.188+229.169-1.84774e-06+246.129-1.84774e-06+264.016C-1.84774e-06+292.912+19.708+318.625+49.154+329.747C41.22+341.101+36.815+354.624+36.815+368.226C36.815+372.369+40.172+375.726+44.315+375.726C48.458+375.726+51.815+372.368+51.815+368.226Z" fill="#fffefe" stroke-linecap="round" opacity="1" stroke-linejoin="round"/>
<path stroke="#fffcfc" stroke-width="35" d="M512+264.016C512+246.127+504.813+229.167+491.606+215.551C498.867+206.291+502.794+195.274+502.794+183.855C502.794+157.112+481.878+134.939+453.435+129.557C455.638+123.824+456.777+117.793+456.777+111.71C456.777+81.054+428.64+56.113+394.055+56.113C393.365+56.113+392.624+56.129+391.85+56.157C389.932+42.012+382.548+28.81+370.635+18.45C357.217+6.78099+339.748+0.229991+321.446+0.00698981C321.113+0.00198981+320.78-1.01933e-05+320.447-1.01933e-05C293.179-1.01933e-05+268.122+13.731+256+35.278C243.878+13.73+218.824-1.01933e-05+191.553-1.01933e-05C191.222-1.01933e-05+190.886+0.00198981+190.554+0.00698981C172.251+0.23099+154.782+6.78099+141.364+18.45C129.453+28.808+122.07+42.009+120.15+56.157C119.376+56.129+118.635+56.113+117.945+56.113C113.802+56.113+110.445+59.47+110.445+63.613C110.445+67.756+113.802+71.113+117.945+71.113C120.237+71.113+123.429+71.346+126.277+71.721C128.533+72.018+130.78+71.283+132.42+69.726C134.062+68.168+134.912+65.953+134.734+63.697L134.689+63.185C134.677+63.05+134.661+62.916+134.656+62.853C135.112+37.284+160.795+15.372+190.738+15.004C213.358+14.774+234.033+25.925+243.422+43.534C244.607+45.757+246.376+47.563+248.501+48.829L248.501+95.269C248.501+99.412+251.858+102.769+256.001+102.769C260.144+102.769+263.501+99.412+263.501+95.269L263.501+48.83C265.626+47.565+267.395+45.758+268.58+43.535C277.854+26.14+298.147+15+320.439+15C320.713+15+320.988+15.002+321.262+15.005C351.205+15.372+376.888+37.284+377.344+62.781C377.223+62.695+377.131+77.816+369.068+87.453C366.41+90.63+366.831+95.359+370.007+98.017C371.41+99.192+373.117+99.765+374.816+99.765C376.96+99.765+379.088+98.851+380.572+97.077C387.556+88.73+390.395+78.348+391.551+71.186C392.452+71.139+393.305+71.112+394.056+71.112C420.369+71.112+441.778+89.324+441.778+111.709C441.778+118.656+439.621+125.557+435.541+131.666C434.023+133.937+433.861+136.854+435.117+139.279C436.372+141.705+438.847+143.257+441.578+143.329C467.494+144.019+487.796+161.82+487.796+183.853C487.796+193.681+483.577+203.18+475.916+210.602C475.84+210.68+467.818+218.664+457.356+219.496C453.227+219.824+450.146+223.437+450.474+227.567C450.787+231.494+454.07+234.472+457.943+234.472C458.142+234.472+458.343+234.464+458.546+234.449C468.048+233.694+475.857+229.442+480.79+225.954C491.284+236.774+497+250.088+497+264.016C497+289.451+476.918+311.878+448.165+318.556C445.515+319.171+443.405+321.174+442.653+323.788C441.901+326.403+442.624+329.22+444.543+331.149C454.483+341.147+460.185+354.661+460.185+368.225C460.185+377.714+457.382+387.1+452.081+395.37C449.845+398.856+450.859+403.496+454.347+405.731C455.6+406.535+457.002+406.919+458.388+406.919C460.858+406.919+463.277+405.7+464.708+403.466C471.562+392.777+475.186+380.59+475.186+368.226C475.186+354.625+470.78+341.102+462.846+329.747C492.292+318.626+512+292.913+512+264.016Z" fill="#fffefe" stroke-linecap="round" opacity="1" stroke-linejoin="round"/>
<path stroke="#fffcfc" stroke-width="35" d="M84.713+256.586C84.481+260.722+87.646+264.263+91.78+264.495C91.924+264.503+92.066+264.507+92.208+264.507C96.157+264.507+99.465+261.42+99.689+257.428C99.71+257.051+102.241+219.671+140.071+210.469C144.096+209.49+146.565+205.434+145.586+201.409C144.607+197.384+140.554+194.912+136.526+195.894C111.173+202.061+98.409+218.238+92.165+230.723C85.483+244.085+84.741+256.082+84.713+256.586Z" fill="#fffefe" stroke-linecap="round" opacity="1" stroke-linejoin="round"/>
<path stroke="#fffcfc" stroke-width="35" d="M200.854+83.125C196.752+82.74+193.073+85.763+192.683+89.888C190.462+113.426+166.087+122.442+165.019+122.825C161.124+124.204+159.077+128.474+160.444+132.376C161.526+135.465+164.424+137.397+167.522+137.397C168.344+137.397+169.182+137.26+170.002+136.973C171.408+136.48+204.482+124.52+207.616+91.296C208.005+87.172+204.978+83.514+200.854+83.125Z" fill="#fffefe" stroke-linecap="round" opacity="1" stroke-linejoin="round"/>
<path stroke="#fffcfc" stroke-width="35" d="M194.816+417.339C195.857+417.834+196.954+418.068+198.034+418.068C200.837+418.068+203.526+416.489+204.811+413.789C206.59+410.049+205.001+405.573+201.261+403.794C172.398+390.061+174.868+357.412+174.99+355.998C175.362+351.884+172.336+348.24+168.219+347.854C164.103+347.482+160.438+350.498+160.052+354.623C159.885+356.428+156.356+399.039+194.816+417.339Z" fill="#fffefe" stroke-linecap="round" opacity="1" stroke-linejoin="round"/>
<path stroke="#fffcfc" stroke-width="35" d="M177.044+278.131C173.303+279.91+171.714+284.385+173.493+288.125C174.777+290.826+177.467+292.405+180.27+292.405C181.35+292.405+182.447+292.171+183.487+291.676C207.768+280.124+205.547+253.286+205.44+252.15C205.053+248.025+201.385+245.009+197.273+245.381C193.149+245.768+190.119+249.424+190.504+253.548C190.521+253.722+191.963+271.032+177.044+278.131Z" fill="#fffefe" stroke-linecap="round" opacity="1" stroke-linejoin="round"/>
<path stroke="#fffcfc" stroke-width="35" d="M355.338+262.24C355.338+266.382+358.696+269.74+362.839+269.74C366.982+269.74+370.34+266.382+370.34+262.24C370.34+258.098+366.982+254.74+362.839+254.74C358.696+254.74+355.338+258.098+355.338+262.24Z" fill="#fffefe" stroke-linecap="round" opacity="1" stroke-linejoin="round"/>
<path stroke="#fffcfc" stroke-width="35" d="M413.829+269.74C417.972+269.74+421.33+266.382+421.33+262.24C421.33+258.098+417.972+254.74+413.829+254.74C409.686+254.74+406.328+258.098+406.328+262.24C406.328+266.382+409.687+269.74+413.829+269.74Z" fill="#fffefe" stroke-linecap="round" opacity="1" stroke-linejoin="round"/>
<path stroke="#fffcfc" stroke-width="35" d="M317.608+468.74C317.608+472.882+320.966+476.24+325.109+476.24C329.252+476.24+332.61+472.882+332.61+468.74C332.61+464.598+329.252+461.24+325.109+461.24C320.966+461.24+317.608+464.598+317.608+468.74Z" fill="#fffefe" stroke-linecap="round" opacity="1" stroke-linejoin="round"/>
<path stroke="#fffcfc" stroke-width="35" d="M332.609+55.74C332.609+51.598+329.251+48.24+325.108+48.24C320.965+48.24+317.607+51.598+317.607+55.74C317.607+59.882+320.965+63.24+325.108+63.24C329.251+63.24+332.609+59.882+332.609+55.74Z" fill="#fffefe" stroke-linecap="round" opacity="1" stroke-linejoin="round"/>
</g>
</g>
</svg>
