<?xml version="1.0" encoding="UTF-8" standalone="no"?> <!-- Created with Vectornator for iOS (http://vectornator.io/) --><!DOCTYPE svg PUBLIC "-//W3C//DTD SVG 1.1//EN" "http://www.w3.org/Graphics/SVG/1.1/DTD/svg11.dtd">
<svg style="fill-rule:evenodd;clip-rule:evenodd;stroke-linecap:round;stroke-linejoin:round;" xmlns:vectornator="http://vectornator.io" xmlns:xlink="http://www.w3.org/1999/xlink" xmlns="http://www.w3.org/2000/svg" xml:space="preserve" version="1.1" viewBox="0 0 512 256">
<metadata>
<vectornator:setting key="DynamicGuides" value="1"/>
<vectornator:setting key="Units" value="Pixels"/>
<vectornator:setting key="GuidesVisible" value="1"/>
<vectornator:setting key="RulersVisible" value="1"/>
<vectornator:setting key="SnapToGuides" value="1"/>
<vectornator:setting key="GridSpacing" value="36"/>
</metadata>
<defs/>
<g id="Untitled" vectornator:layerName="Untitled">
<g opacity="1">
<path stroke="#fffafa" stroke-width="7.76" d="M25.095+123.636C25.095+119.845+25.5185+116.175+26.3655+112.625C27.2125+109.076+28.5637+105.91+30.419+103.127C32.2743+100.344+34.6943+98.1255+37.679+96.4718C40.6637+94.8182+44.2937+93.9913+48.569+93.9913C52.8443+93.9913+56.4743+94.8182+59.459+96.4718C62.4437+98.1255+64.8637+100.344+66.719+103.127C68.5743+105.91+69.9255+109.076+70.7725+112.625C71.6195+116.175+72.043+119.845+72.043+123.636C72.043+127.266+71.6195+130.796+70.7725+134.224C69.9255+137.652+68.5743+140.738+66.719+143.48C64.8637+146.223+62.4437+148.421+59.459+150.075C56.4743+151.729+52.8443+152.555+48.569+152.555C44.2937+152.555+40.6637+151.729+37.679+150.075C34.6943+148.421+32.2743+146.223+30.419+143.48C28.5637+140.738+27.2125+137.652+26.3655+134.224C25.5185+130.796+25.095+127.266+25.095+123.636ZM6.098+123.636C6.098+129.928+7.066+135.797+9.002+141.242C10.938+146.687+13.721+151.426+17.351+155.459C20.981+159.493+25.4378+162.659+30.7215+164.958C36.0052+167.257+41.9543+168.406+48.569+168.406C55.2643+168.406+61.2337+167.257+66.477+164.958C71.7203+162.659+76.157+159.493+79.787+155.459C83.417+151.426+86.2+146.687+88.136+141.242C90.072+135.797+91.04+129.928+91.04+123.636C91.04+117.183+90.072+111.194+88.136+105.668C86.2+100.142+83.417+95.3223+79.787+91.2083C76.157+87.0943+71.7203+83.8677+66.477+81.5283C61.2337+79.189+55.2643+78.0193+48.569+78.0193C41.9543+78.0193+36.0052+79.189+30.7215+81.5283C25.4378+83.8677+20.981+87.0943+17.351+91.2083C13.721+95.3223+10.938+100.142+9.002+105.668C7.066+111.194+6.098+117.183+6.098+123.636Z" fill="#fffcfc" stroke-linecap="round" opacity="1" stroke-linejoin="round"/>
<path stroke="#fffafa" stroke-width="7.76" d="M133.753+155.217C131.01+155.217+128.671+154.653+126.735+153.523C124.799+152.394+123.246+150.922+122.076+149.107C120.907+147.292+120.06+145.174+119.535+142.754C119.011+140.334+118.749+137.874+118.749+135.373C118.749+132.792+118.991+130.291+119.475+127.871C119.959+125.451+120.786+123.314+121.955+121.458C123.125+119.603+124.658+118.091+126.553+116.921C128.449+115.751+130.809+115.166+133.632+115.166C136.375+115.166+138.694+115.751+140.589+116.921C142.485+118.091+144.038+119.623+145.248+121.519C146.458+123.415+147.325+125.572+147.849+127.992C148.374+130.412+148.636+132.873+148.636+135.373C148.636+137.874+148.394+140.334+147.91+142.754C147.426+145.174+146.599+147.292+145.429+149.107C144.26+150.922+142.727+152.394+140.832+153.523C138.936+154.653+136.576+155.217+133.753+155.217ZM102.172+103.913L102.172+188.371L119.354+188.371L119.354+158.726L119.596+158.726C121.693+161.792+124.375+164.111+127.642+165.684C130.91+167.257+134.479+168.043+138.351+168.043C142.949+168.043+146.962+167.156+150.39+165.381C153.819+163.607+156.682+161.227+158.981+158.242C161.281+155.258+162.995+151.829+164.124+147.957C165.253+144.085+165.818+140.052+165.818+135.857C165.818+131.421+165.253+127.166+164.124+123.092C162.995+119.018+161.26+115.449+158.921+112.383C156.582+109.318+153.637+106.858+150.088+105.002C146.539+103.147+142.304+102.219+137.383+102.219C133.511+102.219+129.962+102.986+126.735+104.518C123.508+106.051+120.846+108.511+118.749+111.899L118.507+111.899L118.507+103.913L102.172+103.913Z" fill="#fffcfc" stroke-linecap="round" opacity="1" stroke-linejoin="round"/>
<path stroke="#fffafa" stroke-width="7.76" d="M218.211+128.476L190.26+128.476C190.341+127.266+190.603+125.895+191.046+124.362C191.49+122.83+192.256+121.378+193.345+120.006C194.435+118.635+195.886+117.486+197.701+116.558C199.517+115.63+201.795+115.166+204.538+115.166C208.733+115.166+211.858+116.296+213.915+118.554C215.973+120.813+217.404+124.12+218.211+128.476ZM190.26+139.366L235.393+139.366C235.716+134.526+235.312+129.888+234.183+125.451C233.054+121.015+231.219+117.062+228.677+113.593C226.136+110.125+222.89+107.362+218.937+105.305C214.984+103.248+210.346+102.219+205.022+102.219C200.263+102.219+195.927+103.066+192.014+104.76C188.102+106.454+184.734+108.774+181.911+111.718C179.088+114.662+176.91+118.151+175.377+122.184C173.844+126.218+173.078+130.574+173.078+135.252C173.078+140.092+173.824+144.529+175.316+148.562C176.809+152.596+178.926+156.064+181.669+158.968C184.412+161.872+187.759+164.111+191.712+165.684C195.665+167.257+200.101+168.043+205.022+168.043C212.121+168.043+218.171+166.43+223.172+163.203C228.173+159.977+231.884+154.612+234.304+147.11L219.179+147.11C218.614+149.046+217.082+150.882+214.581+152.616C212.08+154.35+209.096+155.217+205.627+155.217C200.787+155.217+197.076+153.967+194.495+151.466C191.914+148.966+190.502+144.932+190.26+139.366Z" fill="#fffcfc" stroke-linecap="round" opacity="1" stroke-linejoin="round"/>
<path stroke="#fffafa" stroke-width="7.76" d="M245.557+103.913L245.557+166.47L262.739+166.47L262.739+133.679C262.739+127.307+263.788+122.729+265.885+119.946C267.982+117.163+271.37+115.771+276.049+115.771C280.163+115.771+283.027+117.042+284.64+119.583C286.253+122.124+287.06+125.976+287.06+131.138L287.06+166.47L304.242+166.47L304.242+127.992C304.242+124.12+303.899+120.591+303.213+117.405C302.528+114.219+301.338+111.516+299.644+109.298C297.95+107.08+295.631+105.345+292.686+104.095C289.742+102.845+285.971+102.219+281.373+102.219C277.743+102.219+274.194+103.046+270.725+104.7C267.256+106.354+264.433+108.995+262.255+112.625L261.892+112.625L261.892+103.913L245.557+103.913Z" fill="#fffcfc" stroke-linecap="round" opacity="1" stroke-linejoin="round"/>
<path stroke="#fffafa" stroke-width="7.76" d="M319.125+80.0763L319.125+166.47L336.912+166.47L336.912+105.849L337.154+105.849L358.329+166.47L372.97+166.47L394.145+105.244L394.387+105.244L394.387+166.47L412.174+166.47L412.174+80.0763L385.433+80.0763L366.315+139.487L366.073+139.487L345.866+80.0763L319.125+80.0763Z" fill="#fffcfc" stroke-linecap="round" opacity="1" stroke-linejoin="round"/>
<path stroke="#fffafa" stroke-width="7.76" d="M447.869+120.732L447.869+94.8383L462.631+94.8383C464.809+94.8383+466.906+94.9997+468.923+95.3223C470.94+95.645+472.714+96.2702+474.247+97.1978C475.78+98.1255+477.01+99.4363+477.937+101.13C478.865+102.824+479.329+105.043+479.329+107.785C479.329+110.528+478.865+112.746+477.937+114.44C477.01+116.134+475.78+117.445+474.247+118.373C472.714+119.301+470.94+119.926+468.923+120.248C466.906+120.571+464.809+120.732+462.631+120.732L447.869+120.732ZM428.872+80.0763L428.872+166.47L447.869+166.47L447.869+135.494L467.834+135.494C473.239+135.494+477.837+134.708+481.628+133.135C485.419+131.562+488.505+129.485+490.884+126.903C493.264+124.322+494.998+121.358+496.087+118.01C497.177+114.662+497.721+111.254+497.721+107.785C497.721+104.236+497.177+100.808+496.087+97.5003C494.998+94.193+493.264+91.2487+490.884+88.6673C488.505+86.086+485.419+84.0088+481.628+82.4358C477.837+80.8628+473.239+80.0763+467.834+80.0763L428.872+80.0763Z" fill="#fffcfc" stroke-linecap="round" opacity="1" stroke-linejoin="round"/>
</g>
</g>
</svg>
