<?xml version="1.0" encoding="UTF-8" standalone="no"?> <!-- Created with Vectornator for iOS (http://vectornator.io/) --><!DOCTYPE svg PUBLIC "-//W3C//DTD SVG 1.1//EN" "http://www.w3.org/Graphics/SVG/1.1/DTD/svg11.dtd">
<svg style="fill-rule:evenodd;clip-rule:evenodd;stroke-linecap:round;stroke-linejoin:round;" xmlns:vectornator="http://vectornator.io" xmlns:xlink="http://www.w3.org/1999/xlink" xmlns="http://www.w3.org/2000/svg" xml:space="preserve" version="1.1" viewBox="0 0 512 512">
<metadata>
<vectornator:setting key="RulersVisible" value="1"/>
<vectornator:setting key="Units" value="Pixels"/>
<vectornator:setting key="DynamicGuides" value="1"/>
<vectornator:setting key="GuidesVisible" value="1"/>
<vectornator:setting key="CMYKEnabledKey" value="0"/>
<vectornator:setting key="SnapToGuides" value="1"/>
<vectornator:setting key="GridSpacing" value="36"/>
</metadata>
<defs/>
<g id="Untitled" vectornator:layerName="Untitled">
<path stroke="#fffafa" stroke-width="20" d="M254.292+512C236.457+512+218.63+508.17+202.122+500.52L123.184+463.959C94.6256+450.724+64.43+442.342+33.4372+439.041L7.51429+436.279C3.24632+435.826-4.76837e-07+432.001-4.76837e-07+427.434L-4.76837e-07+340.797C-4.76837e-07+338.875+0.587203+337.003+1.6709+335.467C3.60915+332.705+50.0698+268.037+121.04+284.862C160.956+294.313+193.094+311.998+213.026+325.172C227.496+334.734+244.458+339.785+262.079+339.785L341.017+339.785C354.623+339.785+366.582+347.455+373.27+358.961L441.257+275.508C454.438+256.755+476.002+245.27+498.578+245.27L503.658+245.27C506.479+245.27+509.105+246.786+510.642+249.298C512.184+251.811+512.428+254.99+511.296+257.737L449.807+406.625C436.363+439.188+408.989+463.786+376.588+472.418L365.77+475.297L302.839+502.117C287.352+508.714+270.82+512+254.292+512ZM16.6899+419.387L35.0985+421.35C67.8148+424.835+99.6908+433.69+129.843+447.657L208.777+484.218C236.533+497.077+268.543+497.58+296.647+485.602L360.094+458.562C360.447+458.415+360.805+458.293+361.173+458.196L372.54+455.165C399.976+447.856+423.154+427.032+434.53+399.464L490.615+263.662C476.255+265.916+463.041+274.161+454.237+286.663L378.923+379.144C378.932+379.489+378.937+379.83+378.937+380.181C378.937+402.454+361.927+420.577+341.022+420.577L230.885+420.577C216.568+420.577+202.418+423.024+188.836+427.846L185.771+419.555L183.179+411.106L183.604+410.959C198.847+405.547+214.768+402.795+230.885+402.795L341.022+402.795C352.723+402.795+362.252+392.648+362.252+380.176C362.252+367.704+352.728+357.557+341.022+357.557L262.083+357.557C241.35+357.557+221.347+351.58+204.237+340.273C185.408+327.827+155.055+311.128+117.431+302.212C63.6853+289.511+25.011+333.458+16.6947+343.941L16.6947+419.387L16.6899+419.387Z" fill="#fffdfd" stroke-linecap="round" opacity="1" stroke-linejoin="round"/>
<path stroke="#fffafa" stroke-width="20" d="M328.595+243.261C315.762+243.261+301.374+239.039+285.533+230.601C283.614+229.573+282.134+227.793+281.409+225.642C280.764+223.714+265.855+178.023+289.548+144.234C306.768+119.672+339.146+108.609+385.835+111.381C390.094+111.63+393.488+115.267+393.698+119.814C393.865+123.344+397.307+206.664+357.43+234.405C348.951+240.311+339.317+243.261+328.595+243.261ZM296.175+216.333C318.092+227.284+335.613+228.358+348.312+219.523C371.957+203.068+377.07+154.224+377.194+128.802C340.611+127.851+315.705+136.635+302.916+154.87C287.696+176.583+293.611+206.451+296.175+216.333Z" fill="#fffdfd" stroke-linecap="round" opacity="1" stroke-linejoin="round"/>
<path stroke="#fffafa" stroke-width="20" d="M200.995+126.788C186.201+126.788+169.134+123.41+154.239+111.788C128.975+92.0628+117.364+54.51+119.723+0.177227C119.923-4.36492+123.303-8.01694+127.566-8.28652C131.175-8.50524+216.602-13.3627+245.346+32.608C258.732+54.0065+257.634+82.0325+242.095+115.923C241.149+117.983+239.498+119.575+237.478+120.363C236.356+120.806+220.693+126.788+200.995+126.788ZM234.6+112.022L234.681+112.022L234.6+112.022ZM136.145+9.20556C135.424+52.7247+144.815+82.3885+164.097+97.4442C187.184+115.465+218.707+107.805+228.618+104.728C239.956+78.5127+240.916+57.5822+231.463+42.4654C213.895+14.3682+162.374+8.87495+136.145+9.20556Z" fill="#fffdfd" stroke-linecap="round" opacity="1" stroke-linejoin="round"/>
<path stroke="#fffafa" stroke-width="20" d="M266.156+354.434C265.893+354.434+265.631+354.419+265.363+354.393C260.919+353.946+257.591+349.851+257.816+345.095C258.307+334.638+259.147+324.719+260.288+315.32C263.759+252.411+261.969+105.913+175.034+65.3847C170.814+63.4163+168.885+58.1773+170.733+53.6758C172.576+49.1846+177.507+47.1348+181.723+49.0981C232.952+72.9787+265.182+132.433+274.906+221.033C275.78+228.973+276.434+236.801+276.921+244.426C299.817+182.784+334.844+161.004+336.93+159.758C340.941+157.341+346.03+158.878+348.293+163.145C350.541+167.418+349.128+172.824+345.132+175.235C344.249+175.785+290.537+210.128+277.055+316.037C276.028+334.154+274.548+345.706+274.41+346.764C273.832+351.199+270.276+354.434+266.156+354.434Z" fill="#fffdfd" stroke-linecap="round" opacity="1" stroke-linejoin="round"/>
</g>
</svg>
