<?xml version="1.0" encoding="UTF-8" standalone="no"?> <!-- Created with Vectornator for iOS (http://vectornator.io/) --><!DOCTYPE svg PUBLIC "-//W3C//DTD SVG 1.1//EN" "http://www.w3.org/Graphics/SVG/1.1/DTD/svg11.dtd">
<svg style="fill-rule:evenodd;clip-rule:evenodd;stroke-linecap:round;stroke-linejoin:round;" xmlns:vectornator="http://vectornator.io" xmlns:xlink="http://www.w3.org/1999/xlink" xmlns="http://www.w3.org/2000/svg" xml:space="preserve" version="1.1" viewBox="0 0 256 256">
<metadata>
<vectornator:setting key="DynamicGuides" value="1"/>
<vectornator:setting key="Units" value="Pixels"/>
<vectornator:setting key="GuidesVisible" value="1"/>
<vectornator:setting key="RulersVisible" value="1"/>
<vectornator:setting key="SnapToGuides" value="1"/>
<vectornator:setting key="GridSpacing" value="36"/>
</metadata>
<defs/>
<g id="Untitled" vectornator:layerName="Untitled">
<path d="M96.9381+123.815L158.592+123.815C175.754+123.815+189.274+109.447+189.274+92.3956L189.274+34.242C189.274+17.6901+175.251+5.25525+158.499+2.49381C147.897+0.746984+136.943-0.0479778+126.387+0.00223043C115.837+0.0503465+106.064+0.939448+97.1981+2.49381C71.0747+7.05647+66.6387+16.6169+66.6387+34.242L66.6387+56.8713L127.956+56.8713L127.956+65.2393L42.9067+65.2393C24.9681+65.2393+9.25815+75.9252+4.3464+96.2239C-1.32231+119.487-1.57392+133.711+4.3464+158.001C8.73378+176.08+19.2106+188.667+37.1513+188.667L58.1811+188.667L58.1811+161.371C58.1811+141.21+76.0013+123.815+96.9381+123.815ZM93.0518+41.9971C86.6536+41.9971+81.4691+36.811+81.4691+30.3969C81.4691+23.9557+86.6515+18.7215+93.0518+18.7215C99.4267+18.7215+104.637+23.9557+104.637+30.3969C104.634+36.811+99.4246+41.9971+93.0518+41.9971ZM251.186+96.2239C246.75+78.5507+238.281+65.2393+220.318+65.2393L197.732+65.2393L197.732+92.3956C197.732+113.42+179.137+130.091+158.592+130.091L96.9381+130.091C80.0482+130.091+66.6387+145.417+66.6387+162.153L66.6387+220.311C66.6387+236.859+80.9003+246.595+97.2172+251.344C116.758+257.028+135.264+258.055+158.643+251.344C174.181+246.89+189.274+237.932+189.274+220.311L189.274+197.035L127.956+197.035L127.956+188.667L220.318+188.667C238.256+188.667+244.944+176.584+251.186+157.999C257.628+138.867+257.351+120.763+251.186+96.2239ZM162.476+212.552C168.876+212.552+174.061+217.738+174.061+224.156C174.061+230.591+168.878+235.827+162.476+235.827C156.101+235.827+150.893+230.593+150.893+224.156C150.893+217.738+156.101+212.552+162.476+212.552Z" opacity="1" fill="#ffffff"/>
</g>
</svg>
