<?xml version="1.0" encoding="UTF-8" standalone="no"?> <!-- Created with Vectornator for iOS (http://vectornator.io/) --><!DOCTYPE svg PUBLIC "-//W3C//DTD SVG 1.1//EN" "http://www.w3.org/Graphics/SVG/1.1/DTD/svg11.dtd">
<svg style="fill-rule:evenodd;clip-rule:evenodd;stroke-linecap:round;stroke-linejoin:round;" xmlns:vectornator="http://vectornator.io" xmlns:xlink="http://www.w3.org/1999/xlink" xmlns="http://www.w3.org/2000/svg" xml:space="preserve" version="1.1" viewBox="0 0 256 256">
<metadata>
<vectornator:setting key="DynamicGuides" value="1"/>
<vectornator:setting key="Units" value="Pixels"/>
<vectornator:setting key="GuidesVisible" value="1"/>
<vectornator:setting key="RulersVisible" value="1"/>
<vectornator:setting key="SnapToGuides" value="1"/>
<vectornator:setting key="GridSpacing" value="36"/>
</metadata>
<defs/>
<g id="Untitled" vectornator:layerName="Untitled">
<path stroke="#000000" stroke-width="5.15" d="M241.485+82.1895L249.402+76.8M249.402+68.7158L249.402+76.8L256+76.8" fill="#ffffff" stroke-linecap="butt" opacity="1" stroke-linejoin="miter"/>
<path stroke="#000000" stroke-width="5.15" d="M-3.3748e-06+128C-3.3748e-06+57.3075+56.1259-3.3167e-06+125.361-3.3167e-06C194.596-3.3167e-06+250.722+57.3075+250.722+128C250.722+198.692+194.596+256+125.361+256C56.1259+256-3.3748e-06+198.692-3.3748e-06+128Z" fill="#ffffff" stroke-linecap="butt" opacity="1" stroke-linejoin="miter"/>
<path stroke="#000000" stroke-width="5.15" d="M11.8763+200.758C75.2165+128+72.5773+189.979+128+206.147C175.505+216.926+188.701+165.726+154.392+138.779C135.918+122.611+112.165+125.305+93.6907+114.526C67.299+101.053+72.5773+60.6316+98.9691+52.5474C175.505+25.6+141.196+138.779+228.289+87.5789" fill="#ffffff" stroke-linecap="butt" opacity="1" stroke-linejoin="miter"/>
<path stroke="#000000" stroke-width="5.15" d="M204.536+79.4947L217.732+109.137L241.485+87.5789L238.845+79.4947L204.536+79.4947Z" fill="#ffffff" stroke-linecap="butt" opacity="1" stroke-linejoin="miter"/>
</g>
</svg>
