<?xml version="1.0" encoding="UTF-8" standalone="no"?> <!-- Created with Vectornator for iOS (http://vectornator.io/) --><!DOCTYPE svg PUBLIC "-//W3C//DTD SVG 1.1//EN" "http://www.w3.org/Graphics/SVG/1.1/DTD/svg11.dtd">
<svg style="fill-rule:evenodd;clip-rule:evenodd;stroke-linecap:round;stroke-linejoin:round;" xmlns:vectornator="http://vectornator.io" xmlns:xlink="http://www.w3.org/1999/xlink" xmlns="http://www.w3.org/2000/svg" xml:space="preserve" version="1.1" viewBox="0 0 256 256">
<metadata>
<vectornator:setting key="DynamicGuides" value="1"/>
<vectornator:setting key="Units" value="Pixels"/>
<vectornator:setting key="GuidesVisible" value="1"/>
<vectornator:setting key="RulersVisible" value="1"/>
<vectornator:setting key="SnapToGuides" value="1"/>
<vectornator:setting key="GridSpacing" value="36"/>
</metadata>
<defs/>
<g id="Untitled" vectornator:layerName="Untitled">
<path d="M145.81+165.045C146.217+165.471+147.032+166.11+147.643+166.11L158.436+166.11C159.047+166.11+159.861+165.471+160.269+165.045L163.12+161.851C163.527+161.425+163.731+160.999+163.731+160.573L166.785+149.712C166.989+148.647+166.785+147.582+166.174+146.943L163.934+145.027C163.527+144.601+162.712+144.814+162.101+144.814L152.326+144.814L151.919+144.388L151.715+144.175C151.308+144.175+150.901+143.962+150.494+144.388L146.624+146.943C146.217+146.943+146.013+148.008+145.81+148.434L142.551+158.869C142.144+159.934+142.348+161.212+143.162+162.064C143.162+162.064+145.81+165.045+145.81+165.045ZM147.439+221.267L146.624+221.48L144.181+221.48L158.843+176.545C159.25+175.054+158.639+173.351+157.214+172.925L156.399+172.712L131.758+172.712C130.74+172.925+129.925+173.777+129.722+174.841L128.296+180.165C127.889+181.656+128.907+182.934+130.333+183.36L130.944+183.147L134.609+183.147L119.743+227.656C119.336+229.146+119.947+231.063+121.372+231.702L122.187+232.341L144.995+232.341C146.217+232.341+147.235+231.276+147.643+229.998L149.068+224.887C149.679+223.397+148.864+221.693+147.439+221.267ZM255.574+179.314L251.705+173.989L251.705+173.777C251.094+173.138+250.483+172.499+249.669+172.499L235.006+172.499C234.192+172.499+233.581+173.351+232.97+173.777L228.897+178.888L222.584+178.888L218.307+173.777L218.307+173.564C217.9+172.925+217.085+172.499+216.271+172.499L208.125+172.499L249.261+129.481L203.238+81.7772L244.374+37.4812L244.374+18.3147L238.672+10.6481L155.381+10.6481L148.661+18.1017L148.661+24.2776L125.649-1.34091e-05L109.968+15.9721L105.081+10.6481L22.8082+10.6481L16.2916+18.5276L16.2916+38.546L22.401+44.7219L28.5103+44.7219L28.5103+100.305L1.36955e-05+130.119L28.5103+159.934L28.5103+228.082L39.0998+234.258L62.7226+234.258L81.2543+214.026L125.242+260.026L154.77+229.146C154.974+229.998+155.585+230.211+156.603+230.637L157.418+230.211L176.56+230.211C177.782+230.211+178.8+229.998+179.004+228.934L180.429+224.674C180.837+223.184+180.226+221.906+178.8+221.48L177.986+221.693L177.171+221.693L184.095+198.906L188.779+194.008L198.961+194.008L188.779+227.869C188.372+229.359+189.186+230.211+190.612+230.85L191.426+230.424L209.958+230.424C210.976+230.424+211.994+230.211+212.402+229.146L214.031+225.313C214.642+223.822+213.827+222.545+212.605+221.906C212.402+221.693+211.994+221.906+211.587+221.906L210.772+221.906L219.326+194.221L231.748+194.221L221.362+228.082C220.955+229.572+221.769+230.424+223.195+230.85L224.009+230.211L244.374+230.211C245.392+230.211+246.41+229.998+246.818+228.934L248.447+224.674C249.058+223.184+248.243+221.906+246.818+221.48C246.614+221.267+246.207+221.693+245.799+221.693L244.374+221.693L255.778+182.295C256.185+181.23+255.982+179.952+255.574+179.314ZM125.649+4.04625L148.661+28.1109L148.661+38.1201L155.585+46.8515L158.843+46.8515L99.786+106.481L99.786+46.8515L106.506+46.8515L112.005+37.9071L112.005+18.9535L111.597+18.3147C111.597+18.3147+125.649+4.04625+125.649+4.04625ZM3.86927+130.119L28.5103+104.351L28.5103+155.888L3.86927+130.119ZM83.0871+211.684L202.016+83.9068L245.596+129.693L204.459+172.712L204.256+172.712C203.645+172.925+203.238+173.351+202.83+173.777L198.554+178.888L192.648+178.888L188.168+173.777C187.761+173.138+186.946+172.499+186.131+172.499L168.211+172.499C166.989+172.499+165.971+173.351+165.563+174.628L163.934+179.952C163.527+181.443+164.138+182.721+165.563+183.36L168.618+183.36L155.585+223.609L124.834+255.98C124.834+255.98+83.0871+211.684+83.0871+211.684Z" opacity="1" fill="#ffffff"/>
</g>
</svg>
